# xmcd
#
# Track frame offsets:
#	183
#	13648
#	26965
#	38990
#	50323
#	63265
#	73448
#	86065
#	98873
#	109255
#	121553
#	135378
#	151418
#	162088
#	175228
#	187770
#	200293
#	211723
#
# Disc length: 3003 seconds
#
# Revision: 0
# Processed by: cddbd v1.4PL0 Copyright (c) Steve Scherf et al.
# Submitted via: dBpowerAMP V4.0
#
DISCID=ec0bb912
DTITLE=Jackie Wilson - Higher and Higher
DYEAR=1900
DGENRE=
TTITLE0=(Your Love Keeps Lifting Me) Higher and Higher
TTITLE1=I Got the Sweetest Feeling
TTITLE2=I've Lost You
TTITLE3=I Don't Want to Lose You
TTITLE4=The Who Who Song
TTITLE5=Nothing But Blue Skies
TTITLE6=Soul Galore
TTITLE7=Uptight
TTITLE8=Whispers
TTITLE9=You Got Me Walking
TTITLE10=Let This be a Letter
TTITLE11=Because of You
TTITLE12=What'cha Gonna do About Love
TTITLE13=This Love is Real
TTITLE14=Since You showed me How ti Be Happy
TTITLE15=You Braought About a Change in Me
TTITLE16=I'm the One to Do It
TTITLE17=Nobody But You
EXTD=
EXTT0=
EXTT1=
EXTT2=
EXTT3=
EXTT4=
EXTT5=
EXTT6=
EXTT7=
EXTT8=
EXTT9=
EXTT10=
EXTT11=
EXTT12=
EXTT13=
EXTT14=
EXTT15=
EXTT16=
EXTT17=
PLAYORDER=
